<svg width="133" height="32" viewBox="0 0 133 32" fill="none" xmlns="http://www.w3.org/2000/svg">
<path d="M13.7366 0.530762L0 31.4693H7.32878L10.0839 24.843H24.4059L27.161 31.4693H34.6693L20.8078 0.530762H13.7444H13.7366ZM12.3473 19.403L17.2488 7.60979L22.1502 19.403H12.3473Z" fill="#242C4F"/>
<path d="M58.2168 21.5025C60.2226 20.6361 61.768 19.3639 62.8528 17.7015C63.9455 16.039 64.4841 14.041 64.4841 11.7151C64.4841 9.38929 63.9377 7.43027 62.8528 5.74441C61.7602 4.06636 60.2148 2.77856 58.2168 1.87319C56.2109 0.975632 53.8304 0.522949 51.0597 0.522949H37.6743V31.4615H44.8704V22.7981H51.0519C51.1611 22.7981 51.2548 22.7903 51.3563 22.7825L57.366 31.4615H65.0538L58.1621 21.5103C58.1621 21.5103 58.1933 21.5025 58.209 21.4947L58.2168 21.5025ZM55.6099 7.75807C56.726 8.68685 57.288 10.0059 57.288 11.7151C57.288 13.4244 56.726 14.7512 55.6099 15.6956C54.4938 16.64 52.8392 17.1083 50.6616 17.1083H44.8782V6.3688H50.6616C52.8392 6.3688 54.486 6.82929 55.6099 7.75807Z" fill="#242C4F"/>
<path d="M78.0488 8.84293C78.9307 7.96098 79.9766 7.27415 81.1863 6.79025C82.3961 6.30635 83.7151 6.0644 85.159 6.0644C86.6888 6.0644 88.1093 6.37659 89.4205 6.99318C90.7317 7.60976 91.9025 8.52293 92.9327 9.73269L97.5688 5.48684C96.0937 3.69171 94.2673 2.32586 92.0898 1.39708C89.9122 0.4683 87.4849 0.0078125 84.8 0.0078125C82.4117 0.0078125 80.1951 0.398056 78.1503 1.17854C76.1054 1.95903 74.3259 3.07513 72.8039 4.51903C71.2898 5.96293 70.1112 7.65659 69.2683 9.60001C68.4254 11.5434 68.0117 13.682 68.0117 16.0078C68.0117 18.3337 68.4332 20.4722 69.2683 22.4156C70.1034 24.359 71.2742 26.0527 72.7805 27.4966C74.279 28.9405 76.0585 30.0566 78.1034 30.8371C80.1483 31.6176 82.3649 32.0078 84.7532 32.0078C87.4615 32.0078 89.9044 31.5395 92.082 30.5951C94.2595 29.6507 96.0859 28.2849 97.561 26.482L92.9249 22.2361C91.8946 23.4459 90.7239 24.3668 89.4127 24.999C88.1015 25.6312 86.681 25.9512 85.1512 25.9512C83.7073 25.9512 82.3805 25.7093 81.1785 25.2254C79.9688 24.7415 78.9229 24.0546 78.041 23.1727C77.159 22.2907 76.4722 21.2449 75.9883 20.0351C75.5044 18.8254 75.2625 17.4907 75.2625 16.0156C75.2625 14.5405 75.5044 13.1981 75.9883 11.9961C76.4722 10.7863 77.159 9.74049 78.041 8.85854L78.0488 8.84293Z" fill="#242C4F"/>
<path d="M125.175 31.4693H132.683L118.814 0.530762H111.75L98.0137 31.4693H105.342L108.098 24.843H122.42L125.175 31.4693ZM110.353 19.403L115.255 7.60979L120.156 19.403H110.353Z" fill="#242C4F"/>
</svg>
