<svg width="70" height="70" viewBox="0 0 70 70" fill="none" xmlns="http://www.w3.org/2000/svg">
<g clip-path="url(#clip0_688_13565)">
<path d="M35.0438 68.4469C53.4918 68.4469 68.4469 53.4918 68.4469 35.0438C68.4469 16.5957 53.4918 1.64062 35.0438 1.64062C16.5957 1.64062 1.64062 16.5957 1.64062 35.0438C1.64062 53.4918 16.5957 68.4469 35.0438 68.4469Z" fill="white" stroke="#0D658B" stroke-width="2" stroke-miterlimit="10"/>
<mask id="mask0_688_13565" style="mask-type:alpha" maskUnits="userSpaceOnUse" x="11" y="11" width="48" height="48">
<rect x="11" y="11" width="48" height="48" fill="#D9D9D9"/>
</mask>
<g mask="url(#mask0_688_13565)">
<path d="M22.8846 53.9999C22.1003 53.9999 21.4235 53.7152 20.8541 53.1458C20.2847 52.5764 20 51.8996 20 51.1153V18.8846C20 18.1003 20.2847 17.4235 20.8541 16.8541C21.4235 16.2847 22.1003 16 22.8846 16H40.2615L49.9999 25.7384V51.1153C49.9999 51.8996 49.7152 52.5764 49.1458 53.1458C48.5764 53.7152 47.8996 53.9999 47.1153 53.9999H22.8846ZM39.1269 26.7615V18.2692H22.8846C22.7308 18.2692 22.5897 18.3333 22.4615 18.4615C22.3333 18.5897 22.2692 18.7308 22.2692 18.8846V51.1153C22.2692 51.2691 22.3333 51.4102 22.4615 51.5384C22.5897 51.6666 22.7308 51.7307 22.8846 51.7307H47.1153C47.2691 51.7307 47.4102 51.6666 47.5384 51.5384C47.6666 51.4102 47.7307 51.2691 47.7307 51.1153V26.7615H39.1269Z" fill="#0D658B"/>
</g>
</g>
<defs>
<clipPath id="clip0_688_13565">
<rect width="70" height="70" fill="white"/>
</clipPath>
</defs>
</svg>
