<svg width="300" height="210" viewBox="0 0 300 210" fill="none" xmlns="http://www.w3.org/2000/svg">
<path d="M246.392 102.505H221.187C211.05 102.505 210.674 80.6634 221.187 80.6634H246.392C256.529 80.6634 256.543 58.8317 246.392 58.8317H205.436C215.572 58.8317 215.586 37 205.436 37H111.37C101.233 37 101.219 58.8317 111.37 58.8317H79.8677C69.7314 58.8317 69.7101 80.6634 79.8677 80.6634H32.6075C22.4713 80.6634 22.4571 102.505 32.6075 102.505H79.8677C90.0039 102.505 90.0181 124.337 79.8677 124.337H42.0624C31.9261 124.337 31.9048 146.168 42.0624 146.168H73.5644C63.4281 146.168 63.4139 168 73.5644 168H240.089C250.226 168 250.24 146.168 240.089 146.168H208.58C218.716 146.168 218.731 124.337 208.58 124.337H246.385C256.529 124.337 256.543 102.505 246.392 102.505Z" fill="#E6E6E6"/>
<path d="M157.848 193.424H157.095C156.418 193.49 155.752 193.65 155.114 193.9L155.44 194.831C156.211 194.527 157.026 194.372 157.848 194.376V193.385V193.424ZM152.725 195.406C152.488 195.625 152.264 195.86 152.055 196.109V196.159H151.804C151.61 196.441 151.433 196.735 151.274 197.041L152.083 197.526C152.484 196.774 153.007 196.104 153.627 195.545L153.022 194.792L152.725 195.406ZM150.084 200.499C150.037 200.797 150.009 201.098 150 201.4C150.01 201.732 150.041 202.063 150.093 202.391V202.51L151.023 202.312C150.927 201.816 150.877 201.312 150.874 200.806C150.874 200.437 150.902 200.07 150.958 199.706L150.028 199.557L150.084 200.499ZM151.999 205.71L151.209 206.235L151.432 206.582H151.488C151.931 207.226 152.457 207.799 153.05 208.286L153.617 207.504C152.989 207.005 152.442 206.399 151.999 205.71ZM155.821 208.841L155.542 209.832C155.737 209.901 155.933 209.951 156.137 210H156.602H156.798H157.067H157.3H158.295V209.01H157.913C157.22 209.011 156.53 208.9 155.868 208.683L155.821 208.841ZM162.665 207.107C162.074 207.717 161.384 208.207 160.629 208.554L161.001 209.465C161.852 209.066 162.633 208.513 163.307 207.83L162.665 207.107ZM164.758 202.49C164.683 203.364 164.462 204.216 164.107 205.007L164.944 205.433C164.992 205.33 165.036 205.224 165.074 205.116C165.359 204.365 165.54 203.574 165.613 202.768L164.683 202.668L164.758 202.49ZM164.283 196.962L163.521 197.536C164.001 198.248 164.354 199.047 164.562 199.894L165.492 199.637V199.587C165.372 199.13 165.213 198.686 165.018 198.259V198.21H164.906H164.823L164.73 198.071L164.283 196.962ZM159.773 193.672L159.55 194.663C160.349 194.873 161.105 195.236 161.782 195.733L162.303 194.911C162.042 194.724 161.772 194.552 161.494 194.395H161.196C160.754 194.177 160.293 194.004 159.82 193.88L159.773 193.672Z" fill="#CCCCCC"/>
<path d="M53.3082 42.6239C56.4615 42.6239 59.0178 39.9003 59.0178 36.5405C59.0178 33.1807 56.4615 30.457 53.3082 30.457C50.1549 30.457 47.5986 33.1807 47.5986 36.5405C47.5986 39.9003 50.1549 42.6239 53.3082 42.6239Z" fill="#CCCCCC"/>
<path d="M46.8577 194.147C51.1973 194.147 54.7153 190.398 54.7153 185.775C54.7153 181.151 51.1973 177.402 46.8577 177.402C42.518 177.402 39 181.151 39 185.775C39 190.398 42.518 194.147 46.8577 194.147Z" fill="#CCCCCC"/>
<path d="M214.712 0H214.461C213.935 0.028962 213.416 0.135667 212.918 0.317052L213.215 1.24839C213.711 1.07778 214.229 0.990862 214.75 0.99079V0H214.712ZM211.244 1.23849L211.104 1.36729H210.946C210.591 1.70604 210.279 2.09235 210.016 2.51661L210.779 3.07145C211.073 2.61394 211.434 2.20926 211.848 1.87259L211.281 1.07996L211.244 1.23849ZM209.198 4.46846C209.125 4.79378 209.078 5.1253 209.059 5.45925V5.56824L209.988 5.50879C209.988 5.41962 209.988 5.32054 209.988 5.22146C209.986 4.76235 210.046 4.30528 210.165 3.86408L209.235 3.60647L209.198 4.46846ZM210.267 7.98577L209.412 8.35236H209.468C209.704 8.89892 210.018 9.40352 210.398 9.84845L211.104 9.20444C210.762 8.78762 210.488 8.31189 210.295 7.79752L210.267 7.98577ZM212.257 10.4627L211.783 11.3148H212.602C212.835 11.4122 213.075 11.4949 213.318 11.5625H213.531L213.717 10.5717C213.21 10.453 212.723 10.2489 212.276 9.96735L212.257 10.4627ZM216.74 10.6906C216.272 10.9317 215.768 11.0858 215.252 11.1464L215.354 12.1372H215.549C216.013 12.0672 216.466 11.934 216.898 11.7409H216.991L217.139 11.6715L216.74 10.7699V10.6906ZM218.953 8.43162C218.711 8.92408 218.397 9.37227 218.023 9.75928L218.664 10.4726H219.594C219.65 10.3736 219.697 10.2745 219.743 10.1754L218.925 9.70974L218.953 8.43162ZM220.338 5.04312L219.408 5.21155C219.457 5.49937 219.482 5.79108 219.483 6.08345C219.483 6.34548 219.464 6.60714 219.427 6.86617L220.357 7.01479C220.357 6.79682 220.403 6.57884 220.413 6.35096C220.402 6.10192 220.377 5.85378 220.338 5.60787V5.04312ZM218.599 1.62489L217.967 2.34817C218.34 2.72885 218.654 3.1703 218.897 3.65601L219.715 3.18043C219.515 2.79541 219.278 2.43349 219.009 2.10047H218.692L218.618 2.02121L218.599 1.62489ZM215.261 0L215.177 0.99079C215.695 1.04257 216.201 1.18658 216.674 1.41683L217.056 0.515211L216.767 0.386407H216.368C216.007 0.266401 215.637 0.186709 215.261 0.14862V0Z" fill="#CCCCCC"/>
<path d="M95.8874 23.3929C98.255 23.3929 100.174 21.3479 100.174 18.8254C100.174 16.3028 98.255 14.2578 95.8874 14.2578C93.5199 14.2578 91.6006 16.3028 91.6006 18.8254C91.6006 21.3479 93.5199 23.3929 95.8874 23.3929Z" fill="#F2F2F2"/>
<path d="M237.737 13.9706C239.709 13.9706 241.308 12.2672 241.308 10.166C241.308 8.06472 239.709 6.36133 237.737 6.36133C235.765 6.36133 234.166 8.06472 234.166 10.166C234.166 12.2672 235.765 13.9706 237.737 13.9706Z" fill="#F2F2F2"/>
<path d="M282.571 34.7792C284.543 34.7792 286.142 33.0758 286.142 30.9746C286.142 28.8733 284.543 27.1699 282.571 27.1699C280.599 27.1699 279 28.8733 279 30.9746C279 33.0758 280.599 34.7792 282.571 34.7792Z" fill="#F2F2F2"/>
<path d="M259.21 200.757C262.363 200.757 264.919 198.033 264.919 194.673C264.919 191.313 262.363 188.59 259.21 188.59C256.056 188.59 253.5 191.313 253.5 194.673C253.5 198.033 256.056 200.757 259.21 200.757Z" fill="#CCCCCC"/>
<ellipse cx="87" cy="75" rx="37" ry="37" fill="white"/>
<path d="M91 38.35C70.2401 38.35 53.35 55.2401 53.35 76C53.35 96.7599 70.2401 113.65 91 113.65C111.76 113.65 128.65 96.7599 128.65 76C128.65 55.2401 111.76 38.35 91 38.35ZM91 110.038C72.2323 110.038 56.9625 94.7677 56.9625 76C56.9625 57.2323 72.2323 41.9625 91 41.9625C109.768 41.9625 125.037 57.2323 125.037 76C125.037 94.7677 109.768 110.038 91 110.038Z" fill="#CCCCCC" stroke="#CCCCCC" stroke-width="1.3"/>
<path d="M79.512 64.7554L79.5121 64.7555L90.35 75.5911L90.35 91.4492C90.35 91.9283 90.5403 92.3877 90.879 92.7264L91.3387 92.2668L90.879 92.7264C91.2178 93.0652 91.6772 93.2555 92.1563 93.2555C92.6353 93.2555 93.0947 93.0652 93.4335 92.7264C93.7722 92.3877 93.9625 91.9283 93.9625 91.4492L93.9625 74.8432C93.9625 74.3623 93.7709 73.9049 93.4369 73.5674L93.4344 73.5649L82.071 62.2037C82.0705 62.2033 82.0701 62.2028 82.0697 62.2024C81.9024 62.0337 81.7034 61.8998 81.4842 61.8083C81.2643 61.7165 81.0285 61.6693 80.7903 61.6693C80.5521 61.6693 80.3163 61.7165 80.0965 61.8082C79.8771 61.8998 79.678 62.0338 79.5107 62.2026C79.1729 62.5412 78.9831 63 78.9831 63.4784C78.9831 63.9573 79.1734 64.4167 79.512 64.7554Z" fill="#CCCCCC" stroke="#CCCCCC" stroke-width="1.3"/>
<path d="M118.75 73.0375C117.114 73.0375 115.787 74.3639 115.787 76C115.787 77.6361 117.114 78.9625 118.75 78.9625C120.386 78.9625 121.712 77.6361 121.712 76C121.712 74.3639 120.386 73.0375 118.75 73.0375Z" fill="#E6E6E6" stroke="#E6E6E6" stroke-width="1.3"/>
<path d="M63.25 73.0375C61.6139 73.0375 60.2875 74.3639 60.2875 76C60.2875 77.6361 61.6139 78.9625 63.25 78.9625C64.8861 78.9625 66.2125 77.6361 66.2125 76C66.2125 74.3639 64.8861 73.0375 63.25 73.0375Z" fill="#E6E6E6" stroke="#E6E6E6" stroke-width="1.3"/>
<path d="M91 100.788C89.3639 100.788 88.0375 102.114 88.0375 103.75C88.0375 105.386 89.3639 106.713 91 106.713C92.6361 106.713 93.9625 105.386 93.9625 103.75C93.9625 102.114 92.6361 100.787 91 100.788Z" fill="#E6E6E6" stroke="#E6E6E6" stroke-width="1.3"/>
<path d="M91 45.2875C89.3639 45.2875 88.0375 46.6139 88.0375 48.25C88.0375 49.8861 89.3639 51.2125 91 51.2125C92.6361 51.2125 93.9625 49.8861 93.9625 48.25C93.9625 46.6139 92.6361 45.2875 91 45.2875Z" fill="#E6E6E6" stroke="#E6E6E6" stroke-width="1.3"/>
<path d="M109.501 91.5375C107.865 91.5375 106.538 92.8639 106.538 94.5C106.538 96.1361 107.865 97.4625 109.501 97.4625C111.137 97.4625 112.463 96.1361 112.463 94.5C112.463 92.8639 111.137 91.5375 109.501 91.5375Z" fill="#E6E6E6" stroke="#E6E6E6" stroke-width="1.3"/>
<path d="M72.5 54.5375C70.8639 54.5375 69.5375 55.8639 69.5375 57.5C69.5375 59.1361 70.8639 60.4625 72.5 60.4625C74.1361 60.4625 75.4625 59.1361 75.4625 57.5C75.4625 55.8639 74.1361 54.5375 72.5 54.5375Z" fill="#E6E6E6" stroke="#E6E6E6" stroke-width="1.3"/>
<path d="M70.1875 91.5375C68.5514 91.5375 67.225 92.8639 67.225 94.5C67.225 96.1361 68.5514 97.4625 70.1875 97.4625C71.8236 97.4625 73.15 96.1361 73.15 94.5C73.15 92.8639 71.8236 91.5375 70.1875 91.5375Z" fill="#E6E6E6" stroke="#E6E6E6" stroke-width="1.3"/>
<path d="M109.5 54.5375C107.864 54.5375 106.537 55.8639 106.537 57.5C106.537 59.1361 107.864 60.4625 109.5 60.4625C111.136 60.4625 112.462 59.1361 112.462 57.5C112.462 55.8639 111.136 54.5375 109.5 54.5375Z" fill="#E6E6E6" stroke="#E6E6E6" stroke-width="1.3"/>
<path d="M99.9 88.5V149.75C99.9 153.556 101.412 157.206 104.103 159.897C106.794 162.588 110.444 164.1 114.25 164.1H187.75C191.556 164.1 195.206 162.588 197.897 159.897C200.588 157.206 202.1 153.556 202.1 149.75V88.5V76.25C202.1 72.4441 200.588 68.7942 197.897 66.103C195.206 63.4119 191.556 61.9 187.75 61.9H114.25C110.444 61.9 106.794 63.4119 104.103 66.103C101.412 68.7942 99.9 72.4441 99.9 76.25V88.5Z" fill="white" stroke="#CCCCCC" stroke-width="4.2" stroke-linecap="round" stroke-linejoin="round"/>
<line x1="100" y1="89.9" x2="200" y2="89.9" stroke="#CCCCCC" stroke-width="4.2"/>
<path fill-rule="evenodd" clip-rule="evenodd" d="M146.667 108.333C146.667 107.184 147.123 106.082 147.936 105.269C148.749 104.457 149.851 104 151 104C152.149 104 153.251 104.457 154.064 105.269C154.877 106.082 155.333 107.184 155.333 108.333C155.333 109.483 154.877 110.585 154.064 111.397C153.251 112.21 152.149 112.667 151 112.667C149.851 112.667 148.749 112.21 147.936 111.397C147.123 110.585 146.667 109.483 146.667 108.333ZM168.333 104C167.184 104 166.082 104.457 165.269 105.269C164.457 106.082 164 107.184 164 108.333C164 109.483 164.457 110.585 165.269 111.397C166.082 112.21 167.184 112.667 168.333 112.667C169.483 112.667 170.585 112.21 171.397 111.397C172.21 110.585 172.667 109.483 172.667 108.333C172.667 107.184 172.21 106.082 171.397 105.269C170.585 104.457 169.483 104 168.333 104ZM181.333 108.333C181.333 107.184 181.79 106.082 182.603 105.269C183.415 104.457 184.517 104 185.667 104C186.816 104 187.918 104.457 188.731 105.269C189.543 106.082 190 107.184 190 108.333C190 109.483 189.543 110.585 188.731 111.397C187.918 112.21 186.816 112.667 185.667 112.667C184.517 112.667 183.415 112.21 182.603 111.397C181.79 110.585 181.333 109.483 181.333 108.333ZM185.667 121.333C184.517 121.333 183.415 121.79 182.603 122.603C181.79 123.415 181.333 124.517 181.333 125.667C181.333 126.816 181.79 127.918 182.603 128.731C183.415 129.543 184.517 130 185.667 130C186.816 130 187.918 129.543 188.731 128.731C189.543 127.918 190 126.816 190 125.667C190 124.517 189.543 123.415 188.731 122.603C187.918 121.79 186.816 121.333 185.667 121.333ZM164 125.667C164 124.517 164.457 123.415 165.269 122.603C166.082 121.79 167.184 121.333 168.333 121.333C169.483 121.333 170.585 121.79 171.397 122.603C172.21 123.415 172.667 124.517 172.667 125.667C172.667 126.816 172.21 127.918 171.397 128.731C170.585 129.543 169.483 130 168.333 130C167.184 130 166.082 129.543 165.269 128.731C164.457 127.918 164 126.816 164 125.667ZM151 121.333C149.851 121.333 148.749 121.79 147.936 122.603C147.123 123.415 146.667 124.517 146.667 125.667C146.667 126.816 147.123 127.918 147.936 128.731C148.749 129.543 149.851 130 151 130C152.149 130 153.251 129.543 154.064 128.731C154.877 127.918 155.333 126.816 155.333 125.667C155.333 124.517 154.877 123.415 154.064 122.603C153.251 121.79 152.149 121.333 151 121.333ZM129.333 125.667C129.333 124.517 129.79 123.415 130.603 122.603C131.415 121.79 132.517 121.333 133.667 121.333C134.816 121.333 135.918 121.79 136.731 122.603C137.543 123.415 138 124.517 138 125.667C138 126.816 137.543 127.918 136.731 128.731C135.918 129.543 134.816 130 133.667 130C132.517 130 131.415 129.543 130.603 128.731C129.79 127.918 129.333 126.816 129.333 125.667ZM116.333 121.333C115.184 121.333 114.082 121.79 113.269 122.603C112.457 123.415 112 124.517 112 125.667C112 126.816 112.457 127.918 113.269 128.731C114.082 129.543 115.184 130 116.333 130C117.483 130 118.585 129.543 119.397 128.731C120.21 127.918 120.667 126.816 120.667 125.667C120.667 124.517 120.21 123.415 119.397 122.603C118.585 121.79 117.483 121.333 116.333 121.333ZM112 143C112 141.851 112.457 140.749 113.269 139.936C114.082 139.123 115.184 138.667 116.333 138.667C117.483 138.667 118.585 139.123 119.397 139.936C120.21 140.749 120.667 141.851 120.667 143C120.667 144.149 120.21 145.251 119.397 146.064C118.585 146.877 117.483 147.333 116.333 147.333C115.184 147.333 114.082 146.877 113.269 146.064C112.457 145.251 112 144.149 112 143ZM133.667 138.667C132.517 138.667 131.415 139.123 130.603 139.936C129.79 140.749 129.333 141.851 129.333 143C129.333 144.149 129.79 145.251 130.603 146.064C131.415 146.877 132.517 147.333 133.667 147.333C134.816 147.333 135.918 146.877 136.731 146.064C137.543 145.251 138 144.149 138 143C138 141.851 137.543 140.749 136.731 139.936C135.918 139.123 134.816 138.667 133.667 138.667ZM146.667 143C146.667 141.851 147.123 140.749 147.936 139.936C148.749 139.123 149.851 138.667 151 138.667C152.149 138.667 153.251 139.123 154.064 139.936C154.877 140.749 155.333 141.851 155.333 143C155.333 144.149 154.877 145.251 154.064 146.064C153.251 146.877 152.149 147.333 151 147.333C149.851 147.333 148.749 146.877 147.936 146.064C147.123 145.251 146.667 144.149 146.667 143ZM168.333 138.667C167.184 138.667 166.082 139.123 165.269 139.936C164.457 140.749 164 141.851 164 143C164 144.149 164.457 145.251 165.269 146.064C166.082 146.877 167.184 147.333 168.333 147.333C169.483 147.333 170.585 146.877 171.397 146.064C172.21 145.251 172.667 144.149 172.667 143C172.667 141.851 172.21 140.749 171.397 139.936C170.585 139.123 169.483 138.667 168.333 138.667Z" fill="#E6E6E6"/>
</svg>
