<svg width="40" height="40" viewBox="0 0 40 40" fill="none" xmlns="http://www.w3.org/2000/svg">
<mask id="mask0_765_1438" style="mask-type:alpha" maskUnits="userSpaceOnUse" x="0" y="0" width="40" height="40">
<rect width="40" height="40" fill="#D9D9D9"/>
</mask>
<g mask="url(#mask0_765_1438)">
<path d="M10.5128 35.8331C9.67094 35.8331 8.95833 35.5414 8.375 34.9581C7.79167 34.3748 7.5 33.6621 7.5 32.8203V7.17934C7.5 6.33745 7.79167 5.62484 8.375 5.0415C8.95833 4.45817 9.67094 4.1665 10.5128 4.1665H23.75L32.4999 12.9164V32.8203C32.4999 33.6621 32.2083 34.3748 31.6249 34.9581C31.0416 35.5414 30.329 35.8331 29.4871 35.8331H10.5128ZM22.5 14.1664V6.66646H10.5128C10.3846 6.66646 10.2671 6.71988 10.1602 6.82671C10.0534 6.93358 9.99996 7.05112 9.99996 7.17934V32.8203C9.99996 32.9485 10.0534 33.066 10.1602 33.1729C10.2671 33.2797 10.3846 33.3331 10.5128 33.3331H29.4871C29.6153 33.3331 29.7328 33.2797 29.8397 33.1729C29.9465 33.066 30 32.9485 30 32.8203V14.1664H22.5Z" fill="#0D658B"/>
</g>
</svg>
